<svg width="74" height="82" viewBox="0 0 74 82" fill="none" xmlns="http://www.w3.org/2000/svg">
<g clip-path="url(#clip0_33200_36647)">
<path d="M42.0235 38.9215C42.1264 39.1427 42.2827 39.3283 42.4754 39.4579C42.668 39.5875 42.8894 39.6561 43.1152 39.6561C43.3078 39.656 43.4976 39.6057 43.6691 39.5094C43.7412 39.4691 50.9377 35.4461 54.487 34.2124C55.1302 33.9877 55.4871 33.2315 55.2829 32.5239C55.2347 32.3553 55.1568 32.1987 55.0535 32.0633C54.9503 31.9278 54.8238 31.8161 54.6813 31.7345C54.5388 31.6529 54.383 31.603 54.223 31.5877C54.0629 31.5724 53.9017 31.592 53.7485 31.6454C50.0097 32.9465 42.8622 36.9424 42.559 37.1119C41.9574 37.4482 41.7179 38.2583 42.0235 38.9215ZM43.1152 23.5109C43.3078 23.5108 43.4976 23.4606 43.6691 23.3643C43.7412 23.3239 50.9377 19.301 54.487 18.0672C55.1302 17.8425 55.4871 17.0864 55.2829 16.3787C55.2347 16.2101 55.1568 16.0536 55.0535 15.9181C54.9503 15.7826 54.8238 15.6709 54.6813 15.5893C54.5388 15.5077 54.383 15.4578 54.223 15.4425C54.0629 15.4272 53.9017 15.4468 53.7485 15.5002C50.0097 16.8013 42.8622 20.7973 42.559 20.9667C41.9576 21.3031 41.7179 22.113 42.0235 22.7763C42.1264 22.9975 42.2828 23.1831 42.4754 23.3127C42.668 23.4423 42.8894 23.5109 43.1152 23.5109Z" fill="#F26522"/>
<path d="M72.4556 20.8192C72.2951 20.8191 72.1361 20.8539 71.9877 20.9215C71.8394 20.9891 71.7046 21.0882 71.591 21.2131C71.4775 21.3381 71.3874 21.4864 71.326 21.6497C71.2646 21.8129 71.233 21.9879 71.2331 22.1646V74.6369C71.2331 76.8622 69.5874 78.6732 67.5652 78.6732H38.222V75.5774C40.0047 74.8912 44.6481 73.2915 49.2257 73.2915C59.876 73.2915 67.108 75.8869 67.18 75.9137C67.3638 75.9802 67.5592 75.998 67.7504 75.9657C67.9416 75.9334 68.1232 75.852 68.2804 75.728C68.4375 75.6033 68.5654 75.4394 68.6537 75.2497C68.7419 75.06 68.7878 74.8499 68.7878 74.6367V15.4375C68.7881 15.1313 68.6933 14.8342 68.5192 14.5953C68.3451 14.3565 68.1021 14.1903 67.8304 14.1242C67.8304 14.1242 66.8718 13.8888 65.2335 13.5577C64.572 13.4232 63.9327 13.9076 63.8103 14.6368C63.6881 15.3687 64.1269 16.0697 64.7909 16.2042C65.3088 16.3088 65.826 16.4178 66.3424 16.5312V72.8488C63.5719 72.0495 57.4197 70.6006 49.2255 70.6006C43.8985 70.6006 38.6657 72.5259 37.0468 73.1785C35.6078 72.4789 31.2577 70.6006 25.9954 70.6006C17.5739 70.6006 10.6367 72.129 7.65596 72.9054V16.4787C10.0975 15.8181 17.3087 14.0919 25.9954 14.0919C30.4532 14.0919 34.2763 15.619 35.7765 16.3092V69.2552C35.7766 69.4933 35.8341 69.7271 35.9432 69.9328C36.0522 70.1385 36.2089 70.3086 36.3973 70.4259C36.5856 70.5431 36.7988 70.6033 37.0152 70.6002C37.2316 70.5971 37.4433 70.5308 37.6288 70.4082C37.7499 70.3289 49.8637 62.3665 60.6155 58.423C60.8591 58.3337 61.0709 58.1623 61.221 57.9332C61.3711 57.704 61.4519 57.4287 61.4518 57.1462V1.98293C61.4518 1.76544 61.4038 1.55121 61.312 1.3586C61.2202 1.16599 61.0874 1.00075 60.9248 0.877038C60.7625 0.752925 60.5753 0.674011 60.3791 0.64707C60.183 0.620129 59.9839 0.645967 59.7988 0.722364C50.0166 4.75996 40.1183 11.5383 40.0191 11.6056C39.4469 11.9998 39.2721 12.8299 39.6303 13.4597C39.9873 14.0894 40.7417 14.2818 41.3151 13.8876C41.4055 13.8244 50.0166 7.92864 59.0065 3.95017V56.183C50.6608 59.3744 41.9471 64.5853 38.2217 66.9182V15.4375C38.2217 15.1875 38.1584 14.9424 38.039 14.7298C37.9196 14.5171 37.7487 14.3452 37.5456 14.2334C37.3353 14.119 32.325 11.4011 25.9954 11.4011C14.9478 11.4011 6.45415 14.0315 6.09711 14.1444C5.84172 14.2247 5.61705 14.3943 5.4571 14.6276C5.29715 14.8609 5.21063 15.1452 5.21065 15.4375V74.6371C5.211 74.8451 5.25499 75.0502 5.33918 75.2364C5.42338 75.4227 5.54552 75.585 5.69607 75.7108C5.90838 75.8873 6.16727 75.9828 6.43338 75.9826C6.54585 75.9826 6.65832 75.9651 6.76836 75.9301C6.85275 75.9046 15.3073 73.2917 25.9954 73.2917C30.4654 73.2917 34.2849 74.8228 35.7765 75.5102V78.6734H6.43338C4.41116 78.6734 2.76548 76.8624 2.76548 74.6371V22.1647C2.76548 21.4221 2.21773 20.8194 1.5429 20.8194C0.868061 20.8194 0.320312 21.4221 0.320312 22.1647V74.6371C0.320312 78.3464 3.06264 81.3643 6.43352 81.3643H67.5652C70.9359 81.3643 73.6784 78.3465 73.6784 74.6371V22.1647C73.6784 21.988 73.6468 21.813 73.5854 21.6498C73.5239 21.4865 73.4339 21.3382 73.3203 21.2132C73.2068 21.0882 73.072 20.9891 72.9236 20.9215C72.7752 20.8539 72.6162 20.8192 72.4556 20.8192Z" fill="#F26522"/>
<path d="M42.0223 30.8466C42.1252 31.0678 42.2816 31.2534 42.4742 31.383C42.6669 31.5127 42.8883 31.5812 43.1141 31.5812C43.3066 31.5811 43.4964 31.5309 43.668 31.4346C43.74 31.3942 50.9366 27.3713 54.4858 26.1375C55.129 25.9128 55.4859 25.1567 55.2817 24.449C55.2335 24.2804 55.1556 24.1239 55.0524 23.9884C54.9491 23.8529 54.8226 23.7412 54.6801 23.6596C54.5376 23.578 54.3819 23.5281 54.2218 23.5129C54.0618 23.4976 53.9005 23.5172 53.7474 23.5705C50.0086 24.8716 42.861 28.8676 42.5579 29.0371C41.9562 29.3734 41.7167 30.1835 42.0223 30.8466ZM42.0223 46.992C42.1252 47.2131 42.2816 47.3988 42.4742 47.5284C42.6669 47.658 42.8883 47.7266 43.1141 47.7265C43.3066 47.7264 43.4964 47.6762 43.668 47.5799C43.74 47.5395 50.9366 43.5166 54.4858 42.2829C55.129 42.0582 55.4859 41.302 55.2817 40.5944C55.2335 40.4257 55.1556 40.2692 55.0524 40.1337C54.9491 39.9983 54.8226 39.8865 54.6801 39.8049C54.5376 39.7233 54.3819 39.6735 54.2218 39.6582C54.0618 39.6429 53.9005 39.6625 53.7474 39.7158C50.0086 41.0169 42.861 45.0129 42.5579 45.1824C41.9562 45.5187 41.7167 46.3288 42.0223 46.992ZM29.9427 25.6049C22.393 23.6553 13.8137 26.1391 13.4531 26.2454C13.2961 26.2892 13.1486 26.367 13.0192 26.4741C12.8897 26.5812 12.7809 26.7156 12.699 26.8693C12.6172 27.0231 12.5639 27.1932 12.5422 27.3699C12.5206 27.5465 12.531 27.7261 12.573 27.8982C12.6149 28.0704 12.6875 28.2316 12.7866 28.3726C12.8856 28.5137 13.0091 28.6316 13.15 28.7197C13.2908 28.8077 13.4461 28.8641 13.6068 28.8856C13.7676 28.907 13.9307 28.8932 14.0865 28.8447C14.1685 28.8192 22.4286 26.4283 29.3854 28.2244C30.0394 28.3927 30.701 27.9446 30.855 27.2207C31.0089 26.4983 30.6005 25.7744 29.9427 25.6049ZM29.9427 33.6776C22.393 31.7294 13.8137 34.2118 13.4531 34.318C13.2961 34.3619 13.1486 34.4397 13.0192 34.5468C12.8897 34.6539 12.7809 34.7882 12.699 34.942C12.6172 35.0958 12.5639 35.2659 12.5422 35.4425C12.5206 35.6192 12.531 35.7987 12.573 35.9709C12.6149 36.143 12.6875 36.3043 12.7866 36.4453C12.8856 36.5863 13.0091 36.7043 13.15 36.7923C13.2908 36.8804 13.4461 36.9368 13.6068 36.9582C13.7676 36.9797 13.9307 36.9658 14.0865 36.9174C14.1685 36.8918 22.4286 34.5009 29.3854 36.2971C30.0394 36.4653 30.701 36.0172 30.855 35.2934C31.0089 34.5709 30.6005 33.8471 29.9427 33.6776ZM42.0223 55.0646C42.1252 55.2858 42.2816 55.4714 42.4742 55.601C42.6669 55.7306 42.8883 55.7992 43.1141 55.7992C43.3066 55.7991 43.4964 55.7489 43.668 55.6526C43.74 55.6122 50.9366 51.5893 54.4858 50.3555C55.129 50.1308 55.4859 49.3747 55.2817 48.667C55.2335 48.4984 55.1556 48.3419 55.0524 48.2064C54.9491 48.0709 54.8226 47.9592 54.6801 47.8776C54.5376 47.796 54.3819 47.7461 54.2218 47.7308C54.0618 47.7156 53.9005 47.7351 53.7474 47.7885C50.0086 49.0896 42.861 53.0856 42.5579 53.2551C41.9562 53.5914 41.7167 54.4015 42.0223 55.0646ZM29.9427 41.7502C22.393 39.8021 13.8137 42.283 13.4531 42.3907C13.1399 42.4832 12.8729 42.7088 12.7108 43.0178C12.5487 43.3269 12.5048 43.6941 12.5887 44.0388C12.6583 44.3248 12.8116 44.5776 13.0249 44.758C13.2382 44.9385 13.4996 45.0366 13.7686 45.0372C13.8738 45.0372 13.9801 45.0211 14.0865 44.99C14.1685 44.9645 22.4286 42.5736 29.3854 44.3698C30.0394 44.538 30.701 44.0899 30.855 43.366C31.0089 42.6436 30.6005 41.9197 29.9427 41.7502ZM29.9427 57.8956C22.393 55.946 13.8137 58.4298 13.4531 58.536C13.1399 58.6285 12.8729 58.8541 12.7108 59.1631C12.5487 59.4722 12.5048 59.8395 12.5887 60.1841C12.6583 60.4701 12.8116 60.7229 13.0249 60.9033C13.2382 61.0838 13.4996 61.1819 13.7686 61.1825C13.8738 61.1825 13.9801 61.1664 14.0865 61.1354C14.1685 61.1098 22.4286 58.7189 29.3854 60.5151C30.0394 60.6819 30.701 60.2352 30.855 59.5114C31.0089 58.7889 30.6005 58.0651 29.9427 57.8956ZM29.9427 49.8229C22.393 47.8733 13.8137 50.3557 13.4531 50.4634C13.1399 50.5559 12.8729 50.7814 12.7108 51.0905C12.5487 51.3995 12.5048 51.7668 12.5887 52.1115C12.6583 52.3975 12.8116 52.6502 13.0249 52.8307C13.2382 53.0111 13.4996 53.1093 13.7686 53.1098C13.8738 53.1098 13.9801 53.0938 14.0865 53.0627C14.1685 53.0372 22.4286 50.6463 29.3854 52.4424C30.0394 52.6107 30.701 52.1626 30.855 51.4387C31.0089 50.7163 30.6005 49.9924 29.9427 49.8229Z" fill="#F26522"/>
</g>
<defs>
<clipPath id="clip0_33200_36647">
<rect width="73.3585" height="80.7273" fill="white" transform="translate(0.320312 0.636719)"/>
</clipPath>
</defs>
</svg>
