<svg width="44" height="44" viewBox="0 0 44 44" fill="none" xmlns="http://www.w3.org/2000/svg">
<rect width="44" height="44" rx="4" fill="#3366FF"/>
<path d="M15.2513 16.7804L16.1994 23.6109C16.3366 24.5997 17.1821 25.3359 18.1804 25.3359H26.5722C27.5705 25.3359 28.416 24.5997 28.5532 23.6109L29.2645 18.4866C29.3896 17.5848 28.6891 16.7804 27.7787 16.7804H15.2513ZM15.2513 16.7804L15.0053 14.8473C14.9197 14.1739 14.3467 13.6693 13.668 13.6693V13.6693" stroke="white" stroke-width="1.5"/>
<path d="M19.5 29.0859C19.5 28.3956 18.9404 27.8359 18.25 27.8359C17.5596 27.8359 17 28.3956 17 29.0859C17 29.7763 17.5596 30.3359 18.25 30.3359C18.9404 30.3359 19.5 29.7763 19.5 29.0859Z" stroke="white" stroke-width="1.5"/>
<path d="M27.8359 29.0859C27.8359 28.3956 27.2763 27.8359 26.5859 27.8359C25.8956 27.8359 25.3359 28.3956 25.3359 29.0859C25.3359 29.7763 25.8956 30.3359 26.5859 30.3359C27.2763 30.3359 27.8359 29.7763 27.8359 29.0859Z" stroke="white" stroke-width="1.5"/>
<path d="M22.0859 19L22.0859 23.1667" stroke="white" stroke-linecap="round" stroke-linejoin="round"/>
<path d="M24.1667 21.082L20 21.082" stroke="white" stroke-linecap="round" stroke-linejoin="round"/>
</svg>
