<svg width="20" height="20" viewBox="0 0 20 20" fill="none" xmlns="http://www.w3.org/2000/svg">
<path d="M7.97813 15.6849C7.81979 15.6849 7.66146 15.6266 7.53646 15.5016L2.47813 10.4432C2.23646 10.2016 2.23646 9.80156 2.47813 9.5599L7.53646 4.50156C7.77813 4.2599 8.17813 4.2599 8.41979 4.50156C8.66146 4.74323 8.66146 5.14323 8.41979 5.3849L3.80313 10.0016L8.41979 14.6182C8.66146 14.8599 8.66146 15.2599 8.41979 15.5016C8.30313 15.6266 8.13646 15.6849 7.97813 15.6849Z" fill="#696F8C"/>
<path d="M17.0875 10.625H3.0625C2.72083 10.625 2.4375 10.3417 2.4375 10C2.4375 9.65833 2.72083 9.375 3.0625 9.375H17.0875C17.4292 9.375 17.7125 9.65833 17.7125 10C17.7125 10.3417 17.4292 10.625 17.0875 10.625Z" fill="#696F8C"/>
</svg>
