<svg width="24" height="24" viewBox="0 0 24 24" fill="none" xmlns="http://www.w3.org/2000/svg">
<path fill-rule="evenodd" clip-rule="evenodd" d="M11.5938 14.5804V9.35938C11.5938 8.94537 11.2578 8.60938 10.8438 8.60938C10.4297 8.60938 10.0938 8.94537 10.0938 9.35938V14.5804C10.0938 14.9944 10.4297 15.3304 10.8438 15.3304C11.2578 15.3304 11.5938 14.9944 11.5938 14.5804Z" fill="#101840"/>
<path fill-rule="evenodd" clip-rule="evenodd" d="M14.248 10.8707C14.248 10.3967 14.632 10.0117 15.103 10.0117C15.575 10.0117 15.959 10.3967 15.959 10.8707V13.0817C15.959 13.5507 15.575 13.9317 15.103 13.9317C14.632 13.9317 14.248 13.5507 14.248 13.0817V10.8707ZM15.103 15.4317C16.402 15.4317 17.459 14.3777 17.459 13.0817V10.8707C17.459 9.56972 16.402 8.51172 15.103 8.51172C13.805 8.51172 12.748 9.56972 12.748 10.8707V13.0817C12.748 14.3777 13.805 15.4317 15.103 15.4317Z" fill="#101840"/>
<path fill-rule="evenodd" clip-rule="evenodd" d="M13.4024 3C9.46839 3 6.07139 5.594 4.86839 9.159L4.23539 8.965C3.96839 8.883 3.67939 8.957 3.48339 9.153C3.28739 9.352 3.21639 9.642 3.30039 9.907L4.09339 12.416C4.16839 12.651 4.35339 12.835 4.58939 12.907C4.66139 12.93 4.73539 12.94 4.80839 12.94C4.97539 12.94 5.14039 12.885 5.27439 12.778L7.33439 11.146C7.55239 10.973 7.65739 10.692 7.60539 10.419C7.55339 10.146 7.35439 9.923 7.08839 9.841L6.30339 9.6C7.31539 6.646 10.1354 4.5 13.4024 4.5C17.5384 4.5 20.9024 7.864 20.9024 12C20.9024 16.136 17.5384 19.5 13.4024 19.5C10.9364 19.5 8.62939 18.287 7.22739 16.255C6.99239 15.914 6.52639 15.827 6.18439 16.063C5.84339 16.298 5.75739 16.766 5.99339 17.106C7.67339 19.545 10.4434 21 13.4024 21C18.3654 21 22.4024 16.963 22.4024 12C22.4024 7.037 18.3654 3 13.4024 3Z" fill="#101840"/>
</svg>
