<svg width="21" height="20" viewBox="0 0 21 20" fill="none" xmlns="http://www.w3.org/2000/svg">
<path fill-rule="evenodd" clip-rule="evenodd" d="M7.04492 16.2513C6.4773 16.0902 5.86572 15.9697 5.22851 15.9242C3.90853 15.8282 2.83594 14.7637 2.83594 13.4014V4.7832C2.83594 3.25814 4.16772 2.10254 5.66512 2.2653C7.62842 2.48178 9.30685 3.2793 10.3066 3.85873C10.5264 3.98568 10.7725 4.04428 11.0163 4.03451C11.2234 4.02637 11.4289 3.96778 11.616 3.85873C12.615 3.2793 14.2934 2.48178 16.2568 2.2653C17.7534 2.10254 19.0859 3.25814 19.0859 4.7832V13.4014C19.0859 14.7637 18.0134 15.8282 16.6934 15.9242C15.399 16.0169 14.2113 16.4173 13.2807 16.8437C12.8839 17.0261 12.534 17.2132 12.2427 17.3825C11.4476 17.8431 10.4743 17.8431 9.67919 17.3825C9.04036 17.0114 8.12118 16.5573 7.04492 16.2513ZM10.3359 5.20801C10.1089 5.15104 9.88794 5.0599 9.67919 4.93945C9.19177 4.65625 8.54028 4.32585 7.77938 4.04916C7.10311 3.80176 6.34017 3.59831 5.52921 3.50879C4.75325 3.42416 4.08594 4.02148 4.08594 4.7832V13.4014C4.08594 13.7611 4.23853 14.0882 4.48999 14.321C4.70484 14.5212 4.9921 14.653 5.31844 14.6774C7.43189 14.8288 9.24994 15.6882 10.3059 16.3002C10.316 16.3067 10.3258 16.3115 10.3359 16.3164V5.20801ZM11.5859 16.3164C11.5961 16.3115 11.6059 16.3067 11.616 16.3002C12.2894 15.9095 13.2725 15.418 14.4449 15.0762C15.1109 14.8809 15.8377 14.7327 16.6043 14.6774C17.3102 14.6253 17.8359 14.0687 17.8359 13.4014V4.7832C17.8359 4.02148 17.1678 3.42416 16.3927 3.50879C14.6694 3.69759 13.1635 4.4056 12.2427 4.94108C12.0339 5.06153 11.813 5.15104 11.5859 5.20801V16.3164Z" fill="#3366FF"/>
</svg>
