<svg width="16" height="17" viewBox="0 0 16 17" fill="none" xmlns="http://www.w3.org/2000/svg">
<path fill-rule="evenodd" clip-rule="evenodd" d="M7.99806 14.7951C7.67273 14.7951 7.34606 14.7104 7.0554 14.5411C6.21406 14.0578 4.89873 13.4584 3.42473 13.3524C2.4374 13.2871 1.66406 12.4731 1.66406 11.4998V4.60642C1.66406 4.08175 1.88873 3.57975 2.28006 3.22975C2.6774 2.87375 3.21273 2.70108 3.7434 2.76242C5.26473 2.92708 6.56606 3.53242 7.39073 4.01175C7.7654 4.23042 8.23073 4.22975 8.60406 4.01242C9.42806 3.53242 10.7301 2.92708 12.2527 2.76242C12.7867 2.70375 13.3181 2.87375 13.7154 3.22975C14.1067 3.57975 14.3307 4.08175 14.3307 4.60642V11.4998C14.3307 12.4738 13.5574 13.2878 12.5694 13.3524C11.0967 13.4584 9.78206 14.0578 8.93806 14.5424C8.64873 14.7104 8.3234 14.7951 7.99806 14.7951ZM7.49766 11.7069C7.49766 11.9829 7.72166 12.2069 7.99766 12.2069C8.27366 12.2069 8.49766 11.9829 8.49766 11.7069V7.20689C8.49766 6.93089 8.27366 6.70689 7.99766 6.70689C7.72166 6.70689 7.49766 6.93089 7.49766 7.20689V11.7069Z" fill="#F9A886"/>
</svg>
