<svg width="44" height="44" viewBox="0 0 44 44" fill="none" xmlns="http://www.w3.org/2000/svg">
<rect width="44" height="44" rx="4" fill="#696F8C"/>
<path d="M26.8927 30.2258C26.6344 30.2258 26.376 30.1591 26.1427 30.0174L22.801 28.0341C22.451 28.0258 22.101 28.0008 21.7677 27.9508C21.5427 27.9175 21.351 27.7674 21.2677 27.5508C21.1844 27.3341 21.226 27.1007 21.376 26.9258C21.926 26.2841 22.2094 25.5174 22.2094 24.7008C22.2094 22.6841 20.4344 21.0424 18.251 21.0424C17.4344 21.0424 16.651 21.2675 15.9927 21.7008C15.8094 21.8175 15.5844 21.8341 15.3844 21.7424C15.1927 21.6508 15.051 21.4674 15.026 21.2508C15.001 21.0174 14.9844 20.7841 14.9844 20.5424C14.9844 16.4091 18.5677 13.0508 22.9677 13.0508C27.3677 13.0508 30.951 16.4091 30.951 20.5424C30.951 22.8091 29.901 24.8924 28.051 26.3174L28.3344 28.5841C28.401 29.1508 28.151 29.6841 27.676 29.9925C27.4427 30.1425 27.1677 30.2258 26.8927 30.2258ZM22.9594 26.7758C23.076 26.7674 23.1927 26.8008 23.2927 26.8675L26.7844 28.9425C26.876 29.0008 26.951 28.9758 27.001 28.9425C27.0427 28.9175 27.1094 28.8508 27.0927 28.7341L26.7677 26.1008C26.7427 25.8674 26.8427 25.6425 27.026 25.5091C28.726 24.3175 29.701 22.5008 29.701 20.5258C29.701 17.0841 26.6844 14.2841 22.9677 14.2841C19.3927 14.2841 16.4594 16.8841 16.2427 20.1508C16.8677 19.9091 17.5427 19.7758 18.2427 19.7758C21.1177 19.7758 23.451 21.9757 23.451 24.6841C23.4594 25.4174 23.2844 26.1258 22.9594 26.7758Z" fill="white"/>
<path d="M15.8175 30.9601C15.6008 30.9601 15.3924 30.9018 15.2008 30.7768C14.8258 30.5352 14.6258 30.1185 14.6758 29.6768L14.8425 28.3935C13.7175 27.4768 13.0508 26.1185 13.0508 24.6935C13.0508 23.0685 13.9008 21.5518 15.3258 20.6435C16.1841 20.0851 17.2008 19.7852 18.2591 19.7852C21.1341 19.7852 23.4674 21.9851 23.4674 24.6935C23.4674 25.7935 23.0674 26.8768 22.3341 27.7351C21.3924 28.8768 19.9841 29.5435 18.4341 29.5935L16.4008 30.8018C16.2175 30.9101 16.0175 30.9601 15.8175 30.9601ZM18.2508 21.0352C17.4341 21.0352 16.6508 21.2601 15.9924 21.6935C14.9258 22.3768 14.2925 23.4935 14.2925 24.6935C14.2925 25.8518 14.8591 26.9102 15.8591 27.5935C16.0508 27.7268 16.1508 27.9518 16.1258 28.1851L15.9424 29.6101L17.9341 28.4268C18.0341 28.3685 18.1425 28.3351 18.2508 28.3351C19.4758 28.3351 20.6341 27.8102 21.3675 26.9185C21.9175 26.2685 22.2091 25.5018 22.2091 24.6851C22.2091 22.6768 20.4341 21.0352 18.2508 21.0352Z" fill="white"/>
</svg>
