<svg width="24" height="24" viewBox="0 0 24 24" fill="none" xmlns="http://www.w3.org/2000/svg">
<path fill-rule="evenodd" clip-rule="evenodd" d="M8.19531 9.36328V14.5843C8.19531 14.9983 8.53131 15.3343 8.94531 15.3343C9.35931 15.3343 9.69531 14.9983 9.69531 14.5843V9.36328C9.69531 8.94928 9.35931 8.61328 8.94531 8.61328C8.53131 8.61328 8.19531 8.94928 8.19531 9.36328Z" fill="#101840"/>
<path fill-rule="evenodd" clip-rule="evenodd" d="M14.0587 10.8707V13.0817C14.0587 13.5507 13.6747 13.9317 13.2027 13.9317C12.7317 13.9317 12.3477 13.5507 12.3477 13.0817V10.8707C12.3477 10.3967 12.7317 10.0117 13.2027 10.0117C13.6747 10.0117 14.0587 10.3967 14.0587 10.8707ZM10.8477 10.8707V13.0817C10.8477 14.3777 11.9047 15.4317 13.2027 15.4317C14.5017 15.4317 15.5587 14.3777 15.5587 13.0817V10.8707C15.5587 9.56972 14.5017 8.51172 13.2027 8.51172C11.9047 8.51172 10.8477 9.56972 10.8477 10.8707Z" fill="#101840"/>
<path fill-rule="evenodd" clip-rule="evenodd" d="M22.1856 9.153C21.9906 8.956 21.7006 8.882 21.4336 8.965L20.8006 9.159C19.5976 5.593 16.2006 3 12.2656 3C7.30264 3 3.26562 7.037 3.26562 12C3.26562 16.963 7.30264 21 12.2656 21C15.2256 21 17.9956 19.544 19.6746 17.106C19.9106 16.764 19.8246 16.298 19.4836 16.063C19.1426 15.827 18.6746 15.914 18.4406 16.255C17.0396 18.287 14.7326 19.5 12.2656 19.5C8.12962 19.5 4.76563 16.135 4.76563 12C4.76563 7.864 8.12962 4.5 12.2656 4.5C15.5336 4.5 18.3536 6.646 19.3656 9.6L18.5816 9.84C18.3146 9.923 18.1156 10.144 18.0636 10.419C18.0116 10.692 18.1166 10.971 18.3346 11.145L20.3936 12.778C20.5276 12.884 20.6926 12.94 20.8596 12.94C20.9326 12.94 21.0066 12.929 21.0796 12.907C21.3146 12.836 21.4996 12.652 21.5746 12.417L22.3686 9.908C22.4526 9.642 22.3816 9.351 22.1856 9.153Z" fill="#101840"/>
</svg>
