<svg width="16" height="17" viewBox="0 0 16 17" fill="none" xmlns="http://www.w3.org/2000/svg">
<path d="M7.99777 8.20281C9.57572 8.20281 10.8549 6.92362 10.8549 5.34567C10.8549 3.76771 9.57572 2.48853 7.99777 2.48853C6.41981 2.48853 5.14062 3.76771 5.14062 5.34567C5.14062 6.92362 6.41981 8.20281 7.99777 8.20281Z" fill="#F9A886"/>
<path d="M9.06321 12.6149L8.00036 9.43774L6.9375 12.6149V12.6206L8.00036 13.6835L9.06321 12.6206V12.6149Z" fill="#F9A886"/>
<path d="M9.13839 8.77368H8.97839L10.2413 12.5565C10.2824 12.6614 10.2925 12.776 10.2702 12.8865C10.2479 12.997 10.1942 13.0987 10.1155 13.1794L8.23554 15.0594H13.1384C13.2898 15.0589 13.4349 14.9986 13.542 14.8915C13.649 14.7845 13.7094 14.6394 13.7098 14.488V13.3451C13.7083 12.1332 13.2262 10.9713 12.3692 10.1143C11.5122 9.25731 10.3503 8.77519 9.13839 8.77368ZM5.87554 13.1794C5.79688 13.0987 5.74317 12.997 5.72088 12.8865C5.69858 12.776 5.70863 12.6614 5.74982 12.5565L7.01268 8.77368H6.85268C5.64072 8.77519 4.47884 9.25731 3.62186 10.1143C2.76488 10.9713 2.28276 12.1332 2.28125 13.3451V14.488C2.2817 14.6394 2.34205 14.7845 2.44912 14.8915C2.55618 14.9986 2.70127 15.0589 2.85268 15.0594H7.76125C7.76125 15.0594 7.39554 14.6994 5.87554 13.1794Z" fill="#F9A886"/>
</svg>
