<svg width="16" height="16" viewBox="0 0 16 16" fill="none" xmlns="http://www.w3.org/2000/svg">
<path d="M6.10227 3.60562C6.94671 2.09079 7.36892 1.33337 8.00016 1.33337C8.6314 1.33337 9.05362 2.09079 9.89805 3.60562L10.1165 3.99753C10.3565 4.428 10.4765 4.64323 10.6635 4.78525C10.8506 4.92726 11.0836 4.97997 11.5496 5.08541L11.9738 5.18139C13.6136 5.55241 14.4335 5.73792 14.6285 6.36519C14.8236 6.99247 14.2647 7.64609 13.1468 8.95332L12.8576 9.29152C12.5399 9.663 12.381 9.84873 12.3096 10.0785C12.2381 10.3083 12.2621 10.5561 12.3102 11.0517L12.3539 11.503C12.5229 13.2471 12.6074 14.1192 12.0967 14.5069C11.586 14.8945 10.8184 14.5411 9.28305 13.8342L8.88584 13.6513C8.44955 13.4504 8.2314 13.3499 8.00016 13.3499C7.76893 13.3499 7.55078 13.4504 7.11449 13.6513L6.71728 13.8342C5.18195 14.5411 4.41428 14.8945 3.90359 14.5069C3.39291 14.1192 3.47742 13.2471 3.64643 11.503L3.69015 11.0517C3.73818 10.5561 3.76219 10.3083 3.69074 10.0785C3.61928 9.84873 3.46045 9.663 3.14278 9.29152L2.85356 8.95332C1.73566 7.64609 1.17671 6.99247 1.37178 6.36519C1.56684 5.73792 2.38673 5.55241 4.02652 5.18139L4.45075 5.08541C4.91673 4.97997 5.14972 4.92726 5.33679 4.78525C5.52387 4.64323 5.64385 4.428 5.88381 3.99753L6.10227 3.60562Z" fill="url(#paint0_linear_1_18840)"/>
<defs>
<linearGradient id="paint0_linear_1_18840" x1="1.73353" y1="8.40007" x2="14.4001" y2="8.40007" gradientUnits="userSpaceOnUse">
<stop offset="0.495484" stop-color="#F3A412"/>
<stop offset="0.501047" stop-color="#E6E6E6"/>
</linearGradient>
</defs>
</svg>
