<svg width="21" height="20" viewBox="0 0 21 20" fill="none" xmlns="http://www.w3.org/2000/svg">
<path d="M5.8374 17.2506C5.81157 17.2506 5.78492 17.2506 5.75826 17.2506C5.56764 17.2427 5.37793 17.2201 5.19078 17.183C4.53782 17.0528 3.93465 16.7415 3.45027 16.2847C2.96588 15.8278 2.61979 15.2439 2.45157 14.5997C2.24577 13.8361 2.29839 13.0258 2.60122 12.2952C2.90404 11.5646 3.44009 10.9547 4.12577 10.5606C4.37163 10.42 4.64687 10.3387 4.92966 10.3231C5.21243 10.3075 5.49497 10.358 5.7548 10.4707C6.01462 10.5834 6.24458 10.7551 6.42644 10.9722C6.6083 11.1893 6.73703 11.4458 6.80242 11.7214L7.58911 15.0006C7.65587 15.2767 7.65711 15.5648 7.59272 15.8416C7.52833 16.1184 7.40009 16.3763 7.21827 16.5947C7.05135 16.7998 6.84078 16.9651 6.60192 17.0786C6.36304 17.192 6.10184 17.2507 5.8374 17.2506ZM4.75407 11.6438C4.30627 11.9032 3.95667 12.3032 3.75956 12.7816C3.56245 13.2601 3.52887 13.7902 3.66409 14.2897C3.77648 14.704 4.00143 15.0791 4.31402 15.3732C4.6266 15.6674 5.0146 15.8692 5.43492 15.9564C5.55859 15.981 5.68397 15.996 5.80993 16.0013C5.89516 16.0082 5.9807 15.9934 6.05865 15.9583C6.13661 15.9232 6.20442 15.8689 6.25574 15.8006C6.31357 15.7307 6.35432 15.6482 6.37472 15.5598C6.39511 15.4715 6.39459 15.3796 6.37324 15.2914L5.5866 12.0114C5.56602 11.9238 5.52513 11.8424 5.46722 11.7737C5.40931 11.7049 5.33598 11.6507 5.25324 11.6155C5.17354 11.5807 5.08682 11.5651 5 11.5699C4.91317 11.5747 4.82867 11.5997 4.75327 11.6431L4.75407 11.6438Z" fill="#3366FF"/>
<path d="M15.0711 17.2507C14.8076 17.2504 14.5475 17.1914 14.3096 17.0779C14.0718 16.9645 13.8622 16.7994 13.6961 16.5949C13.514 16.3768 13.3855 16.119 13.321 15.8424C13.2565 15.5656 13.2576 15.2777 13.3245 15.0015L14.1103 11.7207C14.1758 11.4452 14.3046 11.1888 14.4865 10.9718C14.6685 10.7548 14.8984 10.5831 15.1582 10.4705C15.418 10.3579 15.7005 10.3074 15.9833 10.3231C16.266 10.3388 16.5412 10.4201 16.787 10.5607C17.4726 10.9549 18.0087 11.5647 18.3115 12.2954C18.6144 13.0259 18.667 13.8362 18.4611 14.5999C18.2931 15.2442 17.9471 15.8282 17.4627 16.285C16.9783 16.7419 16.375 17.0531 15.722 17.1832C15.5332 17.2205 15.3418 17.2431 15.1495 17.2507C15.1236 17.2499 15.097 17.2507 15.0711 17.2507ZM15.8853 11.5682C15.7563 11.5697 15.6314 11.6139 15.5302 11.694C15.429 11.7741 15.3573 11.8854 15.3261 12.0107L14.5403 15.2907C14.5196 15.3786 14.5195 15.4701 14.5402 15.558C14.5609 15.6459 14.6018 15.7279 14.6595 15.7974C14.7133 15.8614 14.7807 15.9128 14.8568 15.9474C14.9329 15.9822 15.0158 15.9995 15.0995 15.9982C15.2271 15.9931 15.3541 15.9781 15.4795 15.9532C15.8999 15.8664 16.288 15.6646 16.6007 15.3704C16.9133 15.0761 17.1381 14.7009 17.2503 14.2865C17.3856 13.787 17.3522 13.2569 17.155 12.7784C16.958 12.2999 16.6082 11.8999 16.1603 11.6407C16.0767 11.5926 15.9818 11.5675 15.8853 11.5682Z" fill="#3366FF"/>
<path d="M16.8099 11.9533C16.6442 11.9533 16.4852 11.8875 16.3679 11.7702C16.2507 11.6531 16.1849 11.4941 16.1849 11.3283V9.72914C16.1849 8.20969 15.5813 6.75246 14.5069 5.67803C13.4325 4.60361 11.9752 4 10.4557 4C8.93625 4 7.479 4.60361 6.40457 5.67803C5.33014 6.75246 4.72656 8.20969 4.72656 9.72914V11.3283C4.72656 11.4941 4.66071 11.6531 4.5435 11.7702C4.4263 11.8875 4.26732 11.9533 4.10156 11.9533C3.9358 11.9533 3.77682 11.8875 3.65961 11.7702C3.5424 11.6531 3.47656 11.4941 3.47656 11.3283V9.72914C3.47656 7.87818 4.21188 6.10299 5.52073 4.79414C6.82958 3.48529 8.60475 2.75 10.4557 2.75C12.3067 2.75 14.0819 3.48529 15.3907 4.79414C16.6996 6.10299 17.4349 7.87818 17.4349 9.72914V11.3283C17.4349 11.4941 17.3691 11.6531 17.2518 11.7702C17.1347 11.8875 16.9757 11.9533 16.8099 11.9533Z" fill="#3366FF"/>
</svg>
