<svg width="44" height="44" viewBox="0 0 44 44" fill="none" xmlns="http://www.w3.org/2000/svg">
<rect x="0.75" y="0.75" width="42.5" height="42.5" rx="2.91667" fill="white"/>
<rect x="0.75" y="0.75" width="42.5" height="42.5" rx="2.91667" stroke="#E6E8F0" stroke-width="1.5"/>
<path fill-rule="evenodd" clip-rule="evenodd" d="M30.649 18.7792C30.3905 17.0907 29.3932 15.6808 27.9128 14.9117C26.4663 14.1592 24.786 14.1491 23.3065 14.8824C22.828 15.1189 22.3926 15.4205 22.0085 15.7807C21.4631 15.2711 20.815 14.8778 20.1128 14.6312C18.6168 14.1005 17.0759 14.2591 15.7761 15.0767C14.4213 15.9311 13.5073 17.4326 13.3304 19.0972C12.928 23.1645 16.5103 25.9016 19.3887 28.0998C19.9277 28.5114 20.4493 28.9092 20.9223 29.2979C21.2294 29.5536 21.6199 29.6875 22.0085 29.6875C22.2203 29.6875 22.4311 29.6481 22.6273 29.5665C22.8748 29.473 23.0599 29.3199 23.2717 29.1439C23.7071 28.7864 24.1783 28.4225 24.6659 28.0457C27.6002 25.7779 31.2522 22.9555 30.649 18.7792Z" fill="#ED4954"/>
</svg>
