<svg width="44" height="44" viewBox="0 0 44 44" fill="none" xmlns="http://www.w3.org/2000/svg">
<rect x="0.818182" y="0.818182" width="42.3636" height="42.3636" rx="3.18182" fill="white"/>
<rect x="0.818182" y="0.818182" width="42.3636" height="42.3636" rx="3.18182" stroke="#E6E8F0" stroke-width="1.63636"/>
<path fill-rule="evenodd" clip-rule="evenodd" d="M31.4348 18.4863C31.1528 16.6443 30.0648 15.1063 28.4498 14.2673C26.8718 13.4463 25.0388 13.4353 23.4248 14.2353C22.9028 14.4933 22.4278 14.8223 22.0088 15.2153C21.4138 14.6593 20.7068 14.2303 19.9408 13.9613C18.3088 13.3823 16.6278 13.5553 15.2098 14.4473C13.7318 15.3793 12.7348 17.0173 12.5418 18.8333C12.1028 23.2703 16.0108 26.2563 19.1508 28.6543C19.7388 29.1033 20.3078 29.5373 20.8238 29.9613C21.1588 30.2403 21.5848 30.3863 22.0088 30.3863C22.2398 30.3863 22.4698 30.3433 22.6838 30.2543C22.9538 30.1523 23.1558 29.9853 23.3868 29.7933C23.8618 29.4033 24.3758 29.0063 24.9078 28.5953C28.1088 26.1213 32.0928 23.0423 31.4348 18.4863Z" fill="#C1C4D6"/>
</svg>
