<svg width="20" height="20" viewBox="0 0 20 20" fill="none" xmlns="http://www.w3.org/2000/svg">
<path fill-rule="evenodd" clip-rule="evenodd" d="M10.3111 1.66944C12.7444 1.66944 14.7261 3.65111 14.7261 6.08694L14.726 7.40077C16.2054 7.91562 17.2695 9.32395 17.2695 10.9768V14.5509C17.2695 16.6384 15.572 18.3359 13.4845 18.3359H7.11703C5.02953 18.3359 3.33203 16.6384 3.33203 14.5509V10.9768C3.33203 9.32426 4.3958 7.91615 5.8747 7.40107L5.87528 6.08694C5.88028 4.88694 6.34445 3.77944 7.18195 2.94944C8.02028 2.11861 9.12695 1.63777 10.3111 1.66944ZM13.4845 8.44177H7.11703C5.7187 8.44177 4.58203 9.57844 4.58203 10.9768V14.5509C4.58203 15.9493 5.7187 17.0859 7.11703 17.0859H13.4845C14.882 17.0859 16.0195 15.9493 16.0195 14.5509V10.9768C16.0195 9.57844 14.882 8.44177 13.4845 8.44177ZM10.3006 11.2133C10.6456 11.2133 10.9256 11.4933 10.9256 11.8383V13.6891C10.9256 14.0341 10.6456 14.3141 10.3006 14.3141C9.95561 14.3141 9.67561 14.0341 9.67561 13.6891V11.8383C9.67561 11.4933 9.95561 11.2133 10.3006 11.2133ZM10.3086 2.91944H10.2953C9.45111 2.91944 8.66028 3.24444 8.06278 3.83694C7.46111 4.43194 7.12861 5.22611 7.12528 6.07277L7.12453 7.1913H13.4754L13.4761 6.08694C13.4761 4.34027 12.0553 2.91944 10.3086 2.91944Z" fill="#696F8C"/>
</svg>
