<svg width="25" height="24" viewBox="0 0 25 24" fill="none" xmlns="http://www.w3.org/2000/svg">
<path d="M6.16263 18.2282C6.60263 18.4802 7.10263 18.6062 7.62163 18.6062C8.07563 18.6062 8.54463 18.5092 9.00063 18.3162C11.2126 17.4002 13.1796 16.1542 14.8446 14.6142C15.6396 13.8872 16.0796 12.9652 16.0826 12.0192C16.0866 11.0682 15.6476 10.1362 14.8466 9.39322L14.8446 9.39022C13.1346 7.82922 11.1126 6.54822 8.99463 5.68722C7.94663 5.27022 6.92463 5.30622 6.11263 5.78622C5.33363 6.24722 4.83463 7.06922 4.70563 8.11122C4.43063 10.8142 4.43163 13.4372 4.70763 15.9162C4.84163 16.9462 5.35863 17.7682 6.16263 18.2282Z" fill="#101840"/>
<path d="M19 18.4662C18.448 18.4662 18 18.0182 18 17.4662V6.53125C18 5.97925 18.448 5.53125 19 5.53125C19.552 5.53125 20 5.97925 20 6.53125V17.4662C20 18.0182 19.552 18.4662 19 18.4662Z" fill="#101840"/>
</svg>
