<svg width="48" height="48" viewBox="0 0 48 48" fill="none" xmlns="http://www.w3.org/2000/svg">
<g clip-path="url(#clip0_869_1175)">
<path d="M5.69922 25H30.2472V48H7.45264C6.98761 48 6.54162 47.8136 6.21278 47.4818C5.88395 47.15 5.69922 46.7 5.69922 46.2308V25Z" fill="#C1C4D6"/>
<path d="M30.2461 25H42.5201V46.2308C42.5201 46.7 42.3353 47.15 42.0065 47.4818C41.6777 47.8136 41.2317 48 40.7666 48H30.2461V25Z" fill="#8F95B2"/>
<path d="M30.2461 25L35.7255 31.1923H47.9995L42.5201 25H30.2461Z" fill="#D8DAE5"/>
<path d="M30.4658 25L24.9863 31.1923H0L5.47945 25H30.4658Z" fill="#D8DAE5"/>
<path d="M24 20C29.5228 20 34 15.5228 34 10C34 4.47715 29.5228 0 24 0C18.4772 0 14 4.47715 14 10C14 15.5228 18.4772 20 24 20Z" fill="#C1C4D6"/>
<path d="M23.7475 6.84742L24.0657 7.31603L24.3827 6.84742C24.5962 6.62496 24.8523 6.44774 25.1358 6.32631C25.4192 6.20489 25.7242 6.14174 26.0325 6.14064C26.3409 6.13954 26.6463 6.20049 26.9306 6.31989C27.2149 6.43928 27.4723 6.61466 27.6874 6.83559L27.7514 6.89652C28.2155 7.35083 28.4821 7.96953 28.4937 8.61886C28.5053 9.26819 28.2608 9.89599 27.8132 10.3665L27.7514 10.4297L24.0657 14.0303L20.4712 10.4297C20.2361 10.1995 20.0493 9.92462 19.9217 9.62127C19.7942 9.31792 19.7285 8.99216 19.7285 8.6631C19.7285 8.33403 19.7942 8.00827 19.9217 7.70492C20.0493 7.40157 20.2361 7.12673 20.4712 6.89652C20.6743 6.6636 20.9242 6.47603 21.2045 6.34599C21.4848 6.21594 21.7894 6.14635 22.0984 6.14172C22.4074 6.13709 22.7139 6.19753 22.998 6.31911C23.2821 6.44069 23.5375 6.6207 23.7475 6.84742Z" fill="white"/>
</g>
<defs>
<clipPath id="clip0_869_1175">
<rect width="48" height="48" fill="white"/>
</clipPath>
</defs>
</svg>
