<svg width="48" height="48" viewBox="0 0 48 48" fill="none" xmlns="http://www.w3.org/2000/svg">
<rect width="48" height="48" rx="24" fill="#101840"/>
<path fill-rule="evenodd" clip-rule="evenodd" d="M19.4324 15.5C17.9674 15.5 16.7754 16.692 16.7754 18.157V29.843C16.7754 31.308 17.9674 32.5 19.4324 32.5C20.8974 32.5 22.0894 31.308 22.0894 29.843V18.157C22.0894 16.692 20.8974 15.5 19.4324 15.5Z" fill="white"/>
<path fill-rule="evenodd" clip-rule="evenodd" d="M28.5672 15.5C27.1022 15.5 25.9102 16.692 25.9102 18.157V29.843C25.9102 31.308 27.1022 32.5 28.5672 32.5C30.0322 32.5 31.2242 31.308 31.2242 29.843V18.157C31.2242 16.692 30.0322 15.5 28.5672 15.5Z" fill="white"/>
</svg>
