<svg width="24" height="28" viewBox="0 0 24 28" fill="none" xmlns="http://www.w3.org/2000/svg">
<path d="M20.874 8.99831L10.2573 1.20848C9.33294 0.530047 8.23863 0.121089 7.09589 0.0270181C5.95315 -0.0670525 4.80669 0.157446 3.78383 0.675584C2.76097 1.19372 1.90174 1.98522 1.30154 2.96219C0.701341 3.93916 0.38367 5.06337 0.383801 6.20998V21.7896C0.381583 22.9367 0.697828 24.0619 1.29731 25.0399C1.8968 26.0178 2.75599 26.8102 3.77919 27.3287C4.8024 27.8472 5.94945 28.0714 7.0926 27.9765C8.23574 27.8816 9.3301 27.4713 10.2538 26.7911L20.8763 19.0013C21.6621 18.4254 22.3012 17.6725 22.7417 16.8035C23.1822 15.9346 23.4117 14.974 23.4117 13.9998C23.4117 13.0256 23.1822 12.0651 22.7417 11.1961C22.3012 10.3271 21.6621 9.5742 20.8763 8.99831H20.874ZM18.8043 16.1791L8.18763 23.969C7.78484 24.265 7.30786 24.4435 6.80971 24.4847C6.31156 24.5258 5.81174 24.4281 5.3658 24.2023C4.91986 23.9765 4.54526 23.6314 4.28364 23.2055C4.02202 22.7796 3.88361 22.2895 3.8838 21.7896V6.20998C3.87845 5.7094 4.01471 5.21751 4.27687 4.79104C4.53903 4.36456 4.9164 4.02089 5.36547 3.79965C5.74567 3.60444 6.16658 3.50171 6.59397 3.49981C7.16671 3.50264 7.72353 3.68865 8.18297 4.03065L18.7996 11.8205C19.142 12.0714 19.4205 12.3995 19.6124 12.7781C19.8043 13.1568 19.9044 13.5753 19.9044 13.9998C19.9044 14.4243 19.8043 14.8428 19.6124 15.2215C19.4205 15.6001 19.142 15.9282 18.7996 16.1791H18.8043Z" fill="white"/>
</svg>
