<svg width="48" height="48" viewBox="0 0 48 48" fill="none" xmlns="http://www.w3.org/2000/svg">
<rect width="48" height="48" rx="24" fill="#101840"/>
<path fill-rule="evenodd" clip-rule="evenodd" d="M30.014 21.439C27.821 19.455 24.104 17.127 21.337 16.013C20.134 15.623 19.126 15.667 18.347 16.143C17.494 16.664 16.939 17.692 16.693 19.223C16.513 20.832 16.425 22.523 16.432 24.249C16.425 25.979 16.513 27.671 16.696 29.301C16.928 30.795 17.474 31.818 18.321 32.343C18.756 32.613 19.263 32.748 19.838 32.748C20.295 32.748 20.794 32.662 21.333 32.491C21.346 32.487 21.358 32.483 21.369 32.479C24.107 31.376 27.8241 29.047 30.009 27.067C31.043 26.159 31.567 25.212 31.568 24.252C31.568 23.292 31.043 22.344 30.014 21.439Z" fill="white"/>
</svg>
