<svg width="25" height="24" viewBox="0 0 25 24" fill="none" xmlns="http://www.w3.org/2000/svg">
<path d="M15.9941 18.3131C16.4521 18.5081 16.9231 18.6061 17.3781 18.6061C17.8971 18.6061 18.3961 18.4791 18.8351 18.2281C19.6401 17.7671 20.1571 16.9461 20.2921 15.9061C20.5681 13.4411 20.5681 10.8181 20.2911 8.10016C20.1631 7.06916 19.6641 6.24716 18.8861 5.78516C18.0761 5.30616 17.0531 5.27016 16.0001 5.68816C13.8851 6.54916 11.8631 7.82916 10.154 9.39016L10.151 9.39316C9.35104 10.1361 8.91204 11.0691 8.91604 12.0201C8.91904 12.9651 9.35904 13.8871 10.152 14.6121C11.8211 16.1551 13.7881 17.4011 15.9941 18.3131Z" fill="#101840"/>
<path d="M6 18.4662C5.448 18.4662 5 18.0182 5 17.4662V6.53125C5 5.97925 5.448 5.53125 6 5.53125C6.552 5.53125 7 5.97925 7 6.53125V17.4662C7 18.0182 6.552 18.4662 6 18.4662Z" fill="#101840"/>
</svg>
