<svg width="27" height="24" viewBox="0 0 27 24" fill="none" xmlns="http://www.w3.org/2000/svg">
<path fill-rule="evenodd" clip-rule="evenodd" d="M18.9348 11.7852C19.349 11.7852 19.6848 12.121 19.6848 12.5352V13.6019C19.6848 15.7834 17.9163 17.5519 15.7348 17.5519H7.94543L9.8651 19.4716C10.158 19.7645 10.158 20.2393 9.8651 20.5322C9.5722 20.8251 9.09733 20.8251 8.80444 20.5322L5.60444 17.3322C5.31154 17.0393 5.31154 16.5645 5.60444 16.2716L8.80444 13.0716C9.09733 12.7787 9.5722 12.7787 9.8651 13.0716C10.158 13.3645 10.158 13.8393 9.8651 14.1322L7.94543 16.0519H15.7348C17.0879 16.0519 18.1848 14.955 18.1848 13.6019V12.5352C18.1848 12.121 18.5206 11.7852 18.9348 11.7852Z" fill="#F26522"/>
<path fill-rule="evenodd" clip-rule="evenodd" d="M14.1361 3.46967C14.4289 3.17678 14.9038 3.17678 15.1967 3.46967L18.3967 6.66967C18.6896 6.96256 18.6896 7.43744 18.3967 7.73033L15.1967 10.9303C14.9038 11.2232 14.4289 11.2232 14.1361 10.9303C13.8432 10.6374 13.8432 10.1626 14.1361 9.86967L16.0557 7.95H8.26641C6.91332 7.95 5.81641 9.0469 5.81641 10.4V11.4667C5.81641 11.8809 5.48063 12.2167 5.06641 12.2167C4.6522 12.2167 4.31641 11.8809 4.31641 11.4667V10.4C4.31641 8.21848 6.08489 6.45 8.26641 6.45H16.0557L14.1361 4.53033C13.8432 4.23744 13.8432 3.76256 14.1361 3.46967Z" fill="#F26522"/>
<rect x="15" y="2" width="12" height="9" rx="4.5" fill="#101840"/>
<path d="M21.7521 4.13636V8.5H20.8295V5.01207H20.804L19.8047 5.63849V4.82031L20.8849 4.13636H21.7521Z" fill="white"/>
</svg>
