<svg width="20" height="20" viewBox="0 0 20 20" fill="none" xmlns="http://www.w3.org/2000/svg">
<path fill-rule="evenodd" clip-rule="evenodd" d="M11.911 17.2558C11.7548 17.0995 11.667 16.8876 11.667 16.6666C11.667 16.4456 11.7548 16.2337 11.911 16.0774L14.6552 13.3333H10.0002C8.23203 13.3333 6.53637 12.6309 5.28611 11.3807C4.03586 10.1304 3.33353 8.43468 3.33353 6.6666V3.33326C3.33353 3.11226 3.42128 2.90026 3.57762 2.74401C3.73387 2.58776 3.94587 2.49993 4.16687 2.49993C4.38787 2.49993 4.59978 2.58776 4.75611 2.74401C4.91236 2.90026 5.0002 3.11226 5.0002 3.33326V6.6666C5.0002 7.99268 5.52695 9.26443 6.46461 10.2021C7.40228 11.1398 8.67412 11.6666 10.0002 11.6666H14.6552L11.911 8.92243C11.7592 8.76526 11.6752 8.55476 11.6771 8.33626C11.679 8.11776 11.7666 7.90876 11.9212 7.75426C12.0757 7.59976 12.2847 7.5121 12.5032 7.51018C12.7217 7.50826 12.9322 7.59226 13.0893 7.7441L17.256 11.9108C17.4122 12.067 17.5 12.279 17.5 12.4999C17.5 12.7209 17.4122 12.9328 17.256 13.0891L13.0893 17.2558C12.9331 17.412 12.7211 17.4998 12.5002 17.4998C12.2792 17.4998 12.0673 17.412 11.911 17.2558Z" fill="#696F8C"/>
</svg>
