<svg width="20" height="20" viewBox="0 0 20 20" fill="none" xmlns="http://www.w3.org/2000/svg">
<path d="M9.99935 18.2357C9.53935 18.2357 9.16602 17.8623 9.16602 17.4023V2.59896C9.16602 2.13896 9.53935 1.76562 9.99935 1.76562C10.4593 1.76562 10.8327 2.13896 10.8327 2.59896V17.4023C10.8327 17.8623 10.4593 18.2357 9.99935 18.2357Z" fill="#F26522"/>
<path d="M6.26302 15.5785C5.80302 15.5785 5.42969 15.2052 5.42969 14.7452V5.36849C5.42969 4.90849 5.80302 4.53516 6.26302 4.53516C6.72302 4.53516 7.09635 4.90849 7.09635 5.36849V14.7452C7.09635 15.2052 6.72302 15.5785 6.26302 15.5785Z" fill="#F26522"/>
<path d="M12.9023 14.6319C12.9023 15.0919 13.2757 15.4652 13.7357 15.4652C14.1957 15.4652 14.569 15.0919 14.569 14.6319V5.25521C14.569 4.79438 14.1957 4.42188 13.7357 4.42188C13.2757 4.42188 12.9023 4.79438 12.9023 5.25521V14.6319Z" fill="#F26522"/>
<path d="M17.472 12.4688C17.012 12.4688 16.6387 12.0954 16.6387 11.6354V8.1263C16.6387 7.6663 17.012 7.29297 17.472 7.29297C17.932 7.29297 18.3053 7.6663 18.3053 8.1263V11.6354C18.3053 12.0954 17.932 12.4688 17.472 12.4688Z" fill="#F26522"/>
<path d="M1.69531 11.8745C1.69531 12.3345 2.06865 12.7079 2.52865 12.7079C2.98865 12.7079 3.36198 12.3345 3.36198 11.8745V8.36455C3.36198 7.90458 2.98865 7.53125 2.52865 7.53125C2.06865 7.53125 1.69531 7.90458 1.69531 8.36455V11.8745Z" fill="#F26522"/>
</svg>
