<svg width="14" height="14" viewBox="0 0 14 14" fill="none" xmlns="http://www.w3.org/2000/svg">
<path d="M5.10178 2.6055C5.94622 1.09067 6.36843 0.333252 6.99967 0.333252C7.63092 0.333252 8.05313 1.09067 8.89757 2.6055L9.11603 2.99741C9.35599 3.42788 9.47597 3.64311 9.66305 3.78512C9.85012 3.92714 10.0831 3.97985 10.5491 4.08528L10.9733 4.18127C12.6131 4.55229 13.433 4.7378 13.6281 5.36507C13.8231 5.99235 13.2642 6.64597 12.1463 7.9532L11.8571 8.2914C11.5394 8.66288 11.3806 8.84861 11.3091 9.0784C11.2376 9.30818 11.2617 9.55599 11.3097 10.0516L11.3534 10.5028C11.5224 12.247 11.6069 13.1191 11.0962 13.5067C10.5856 13.8944 9.81789 13.5409 8.28256 12.834L7.88535 12.6511C7.44906 12.4503 7.23091 12.3498 6.99967 12.3498C6.76844 12.3498 6.55029 12.4503 6.114 12.6511L5.71679 12.834C4.18146 13.5409 3.41379 13.8944 2.90311 13.5067C2.39242 13.1191 2.47693 12.247 2.64594 10.5029L2.68966 10.0516C2.73769 9.55599 2.76171 9.30818 2.69025 9.0784C2.61879 8.84861 2.45996 8.66288 2.14229 8.2914L1.85307 7.9532C0.735174 6.64597 0.176224 5.99235 0.371288 5.36507C0.566353 4.7378 1.38625 4.55229 3.02603 4.18127L3.45027 4.08528C3.91624 3.97985 4.14923 3.92714 4.3363 3.78512C4.52338 3.64311 4.64336 3.42788 4.88332 2.99741L5.10178 2.6055Z" fill="#F3A412"/>
</svg>
