<svg width="20" height="20" viewBox="0 0 20 20" fill="none" xmlns="http://www.w3.org/2000/svg">
<path fill-rule="evenodd" clip-rule="evenodd" d="M6.84508 3.125C5.29458 3.125 4.03711 4.38247 4.03711 5.93297V14.067C4.03711 15.6175 5.29458 16.875 6.84508 16.875H13.5732C15.1237 16.875 16.3812 15.6175 16.3812 14.067V5.93297C16.3812 4.38247 15.1237 3.125 13.5732 3.125H6.84508ZM2.78711 5.93297C2.78711 3.69212 4.60423 1.875 6.84508 1.875H13.5732C15.8141 1.875 17.6312 3.69212 17.6312 5.93297V14.067C17.6312 16.3079 15.8141 18.125 13.5732 18.125H6.84508C4.60423 18.125 2.78711 16.3079 2.78711 14.067V5.93297Z" fill="#474D66"/>
<path fill-rule="evenodd" clip-rule="evenodd" d="M6.82462 6.51367C6.82462 6.16849 7.10444 5.88867 7.44962 5.88867H9.55451C9.89968 5.88867 10.1795 6.16849 10.1795 6.51367C10.1795 6.85885 9.89968 7.13867 9.55451 7.13867H7.44962C7.10444 7.13867 6.82462 6.85885 6.82462 6.51367ZM6.82422 9.886C6.82422 9.54083 7.10404 9.261 7.44922 9.261H12.966C13.3112 9.261 13.591 9.54083 13.591 9.886C13.591 10.2312 13.3112 10.511 12.966 10.511H7.44922C7.10404 10.511 6.82422 10.2312 6.82422 9.886ZM6.82422 13.2662C6.82422 12.921 7.10404 12.6412 7.44922 12.6412H12.966C13.3112 12.6412 13.591 12.921 13.591 13.2662C13.591 13.6114 13.3112 13.8912 12.966 13.8912H7.44922C7.10404 13.8912 6.82422 13.6114 6.82422 13.2662Z" fill="#474D66"/>
</svg>
